<?xml version="1.0" encoding="utf-8"?>
<!-- Generator: Adobe Illustrator 24.3.0, SVG Export Plug-In . SVG Version: 6.00 Build 0)  -->
<svg version="1.1" id="Livello_1" xmlns="http://www.w3.org/2000/svg" xmlns:xlink="http://www.w3.org/1999/xlink" x="0px" y="0px"
	 viewBox="0 0 2432 2432" style="enable-background:new 0 0 2432 2432;" xml:space="preserve">
<style type="text/css">
	.st0{fill:none;}
	.st1{enable-background:new    ;}
	.st2{opacity:0.399;fill-rule:evenodd;clip-rule:evenodd;enable-background:new    ;}
	.st3{opacity:0.912;fill-rule:evenodd;clip-rule:evenodd;enable-background:new    ;}
	.st4{clip-path:url(#SVGID_1_);}
	.st5{fill-rule:evenodd;clip-rule:evenodd;fill:#D3D7CF;}
	.st6{fill-rule:evenodd;clip-rule:evenodd;fill:url(#path4500_1_);}
	.st7{fill-rule:evenodd;clip-rule:evenodd;fill:url(#path4502_1_);}
	.st8{fill-rule:evenodd;clip-rule:evenodd;fill:url(#path4504_1_);}
	.st9{fill-rule:evenodd;clip-rule:evenodd;fill:url(#path4506_1_);}
	.st10{fill-rule:evenodd;clip-rule:evenodd;fill:url(#path4508_1_);}
	.st11{fill-rule:evenodd;clip-rule:evenodd;fill:url(#path4510_1_);}
	.st12{fill-rule:evenodd;clip-rule:evenodd;fill:url(#path4512_1_);}
	.st13{fill-rule:evenodd;clip-rule:evenodd;fill:url(#path4514_1_);}
	.st14{fill-rule:evenodd;clip-rule:evenodd;fill:url(#path4412-7-1-6-0-6_1_);}
	.st15{opacity:0.373;fill:none;stroke:#FFFFFF;stroke-width:3;enable-background:new    ;}
	.st16{fill-rule:evenodd;clip-rule:evenodd;fill:url(#path4412-7-1_1_);}
	.st17{opacity:5.799997e-02;fill-rule:evenodd;clip-rule:evenodd;fill:url(#path4412-7-1-3_1_);enable-background:new    ;}
	.st18{fill-rule:evenodd;clip-rule:evenodd;fill:url(#path4412-7-1-6-0-3_1_);}
	.st19{fill:none;stroke:url(#path5247-2-7_1_);stroke-width:2;}
	.st20{fill:none;stroke:url(#path5247-2-7-2_1_);stroke-width:2;}
	.st21{fill:none;stroke:url(#path5247-2_1_);stroke-width:2;}
	.st22{fill:none;stroke:url(#path5247_1_);stroke-width:2;}
	.st23{clip-path:url(#SVGID_2_);enable-background:new    ;}
	.st24{fill-rule:evenodd;clip-rule:evenodd;fill:url(#path4169-3-3-7_1_);stroke:url(#path4169-3-3-7_2_);stroke-width:2;}
	.st25{fill:none;stroke:url(#path4169-3-3-7-6_1_);stroke-width:3.9821;}
</style>
<pattern  width="680" height="560" patternUnits="userSpaceOnUse" id="pattern6280" viewBox="0 -560 680 560" style="overflow:visible;">
	<g>
		<rect y="-560" class="st0" width="680" height="560"/>
	</g>
</pattern>
<g id="layer9">
	<g id="g4485" transform="translate(3.000003,-9.58006)" class="st1">
		<path id="path4412-7-1-6-3-6" class="st2" d="M1422.1,36.4l-126.1,233.8c-27.6-2.7-55.3-4.1-83.1-4.3c-28.5,0.1-56.9,1.6-85.2,4.3
			L1001.7,37.6c-108.1,19.6-213.1,54-311.8,102.2l35.3,262.5c-48.1,28.7-93.6,61.7-136,98.5L349.6,386.2
			C273.8,465.6,209.2,555,157.7,652l26.7,83.6l140.8,147.5c-14.6,39.3-26.6,79.5-35.9,120.3l-260.6,48.1
			c-7.9,53.9-12,108.3-12.5,162.8c0.5,55.4,4.8,110.6,12.9,165.4l30,65.2l246.8,45c9.9,33.1,21.6,65.6,35,97.4l-182.5,192l26.7,55.1
			c13.7,25.4,28.4,50.2,43.9,74.5c0.3,0.5,0.6,0.9,0.9,1.4c20.8,32.4,43.1,63.7,67,93.9c0.2,0.3,0.5,0.6,0.7,0.9
			c24,30.3,49.5,59.4,76.4,87.2L607,1980.7c15.1,13,30.6,25.5,46.5,37.4c6.1,4.6,12.3,9.2,18.5,13.6c16.3,11.7,33,22.9,50,33.5
			l-29.9,225.7l13.2,42.1c25.9,12.6,52.3,24.2,79,34.8c0.5,0.2,1.1,0.4,1.6,0.6c35.9,14.2,72.4,26.6,109.4,37.2
			c0.2,0,0.3,0.1,0.5,0.1c37.3,10.6,75.1,19.4,113.3,26.3l122.9-227.8c26.9,2.6,53.9,4,81,4.2c27.7-0.1,55.4-1.5,83.1-4.2
			l122.9,226.7c28.4-5.1,56.6-11.4,84.4-18.6c0.6-0.2,1.3-0.3,1.9-0.5c37.2-9.7,73.9-21.2,110-34.5c0.3-0.1,0.6-0.2,0.9-0.4
			c36.3-13.4,71.9-28.6,106.7-45.6l13.2-42.2l-30.3-225c10.4-6.5,20.7-13.2,30.9-20.1c6-4.1,12-8.3,17.9-12.5
			c22.9-16.3,45-33.7,66.3-52.1l233.6,111.6c19.9-20.8,38.9-42.3,57.1-64.4c0.4-0.5,0.9-1.1,1.3-1.6c24.3-29.7,47.2-60.5,68.5-92.4
			c0.2-0.3,0.5-0.7,0.7-1c21.4-32.1,41.2-65.4,59.4-99.5l26.7-55.1l-182.7-191.4c1.2-3.5,2.4-6.9,3.6-10.4
			c11.7-28.5,22-57.4,30.9-86.9l247.2-45.6l30-65.3c7.9-53.9,12-108.3,12.5-162.8c-0.5-55.4-4.8-110.6-12.9-165.4l-260.4-47.5
			c-9.3-41.1-21.3-81.5-35.9-120.9l140.2-147.5l26.7-83.7c-52.2-96.7-117.4-185.7-193.8-264.6l-238.9,114.8
			c-42.2-36.8-87.6-69.8-135.7-98.5l34.8-263C1635.1,90,1530.2,55.8,1422.1,36.4z M1213,680.5c333.2,0,603.3,270.1,603.3,603.3
			c0,0,0,0,0,0c-0.2,50.8-6.7,101.4-19.6,150.5c-90.3,233.3-319.4,399.1-583.8,399.1c-263.5,0-492-164.7-582.9-396.8
			c-13.3-49.9-20.2-101.2-20.4-152.8C609.7,950.7,879.8,680.5,1213,680.5C1213,680.5,1213,680.5,1213,680.5z"/>
		<path id="path8383" class="st3" d="M1422.1,24.8l-126.1,233.8c-27.6-2.7-55.3-4.1-83.1-4.3c-28.5,0.1-56.9,1.6-85.2,4.3L1001.7,26
			C893.6,45.6,788.7,80,689.9,128.2l35.3,262.5c-48.1,28.7-93.6,61.7-136,98.5L349.6,374.6c-75.9,79.4-140.5,168.8-192,265.8
			l26.7,83.6l140.8,147.5c-14.6,39.3-26.6,79.5-35.9,120.3l-260.6,48.1c-7.9,53.9-12,108.3-12.5,162.8
			c0.5,55.4,4.8,110.6,12.9,165.4l30,65.2l246.8,45c9.9,33.1,21.6,65.6,35,97.4l-182.5,192l26.7,55.1c13.7,25.4,28.4,50.2,43.9,74.5
			c0.3,0.5,0.6,0.9,0.9,1.4c20.8,32.4,43.1,63.7,67,93.9c0.2,0.3,0.5,0.6,0.7,0.9c24,30.3,49.5,59.4,76.4,87.2L607,1969.1
			c15.1,13,30.6,25.5,46.5,37.4c6.1,4.6,12.3,9.2,18.5,13.6c16.3,11.7,33,22.9,50,33.5l-29.9,225.7l13.2,42.1
			c25.9,12.6,52.3,24.2,79,34.8c0.5,0.2,1.1,0.4,1.6,0.6c35.9,14.2,72.4,26.6,109.4,37.2c0.2,0,0.3,0.1,0.5,0.1
			c37.3,10.6,75.1,19.4,113.3,26.3l122.9-227.8c26.9,2.6,53.9,4,81,4.2c27.7-0.1,55.4-1.5,83.1-4.2l122.9,226.7
			c28.4-5.1,56.6-11.4,84.4-18.6c0.6-0.2,1.3-0.3,1.9-0.5c37.2-9.7,73.9-21.2,110-34.5c0.3-0.1,0.6-0.2,0.9-0.4
			c36.3-13.4,71.9-28.6,106.7-45.6l13.2-42.2l-30.3-225c10.4-6.5,20.7-13.2,30.9-20.1c6-4.1,12-8.3,17.9-12.5
			c22.9-16.3,45-33.7,66.3-52.1l233.6,111.6c19.9-20.8,38.9-42.3,57.1-64.4c0.4-0.5,0.9-1.1,1.3-1.6c24.3-29.7,47.2-60.5,68.5-92.4
			c0.2-0.3,0.5-0.7,0.7-1c21.4-32.1,41.2-65.4,59.4-99.5l26.7-55.1l-182.7-191.4c1.2-3.5,2.4-6.9,3.6-10.4
			c11.7-28.5,22-57.4,30.9-86.9l247.2-45.6l30-65.3c7.9-53.9,12-108.3,12.5-162.8c-0.5-55.4-4.8-110.6-12.9-165.4l-260.4-47.5
			c-9.3-41.1-21.3-81.5-35.9-120.9l140.2-147.5l26.7-83.7c-52.2-96.7-117.4-185.7-193.8-264.6L1834.8,488
			c-42.2-36.8-87.6-69.8-135.7-98.5l34.8-263C1635.1,78.5,1530.2,44.3,1422.1,24.8z M1213,669c333.2,0,603.3,270.1,603.3,603.3
			c0,0,0,0,0,0c-0.2,50.8-6.7,101.4-19.6,150.5c-90.3,233.3-319.4,399.1-583.8,399.1c-263.5,0-492-164.7-582.9-396.8
			c-13.3-49.9-20.2-101.2-20.4-152.8C609.7,939.1,879.8,669,1213,669C1213,669,1213,669,1213,669z"/>
	</g>
	<g id="g4199" transform="matrix(1,0,0,-1,3.000003,32.58009)" class="st1">
		<g>
			<defs>
				<path id="SVGID_5_" d="M1009.2-2372.6c-38.2,6.9-76,15.7-113.3,26.3c-0.2,0-0.3,0.1-0.5,0.1c-37.1,10.6-73.6,23-109.4,37.2
					c-0.5,0.2-1.1,0.4-1.6,0.6c-26.7,10.6-53.1,22.2-79,34.8l-13.2,42.1l29.9,225.7c-17,10.6-33.7,21.8-50,33.5
					c-6.2,4.5-12.4,9-18.5,13.6c-15.9,12-31.4,24.4-46.5,37.4L374.1-2033c-26.9,27.8-52.4,56.9-76.4,87.2c-0.2,0.3-0.5,0.6-0.7,0.9
					c-23.9,30.2-46.2,61.5-67,93.9c-0.3,0.5-0.6,0.9-0.9,1.4c-15.5,24.3-30.2,49.1-43.9,74.5l-26.7,55.1L341-1528
					c-13.3,31.8-24.9,64.3-34.7,97.4l-247.1,45.1l-30,65.2c-8.1,54.8-12.4,110-12.9,165.4c0.5,54.5,4.6,108.9,12.5,162.8L289.3-944
					c9.5,40.7,21.7,80.7,36.4,119.8L184.4-676.2l-26.7,83.6c51.5,97,116.1,186.5,192,265.8l239.6-114.5
					c42.3,36.8,87.8,69.7,136,98.5L689.9-80.2C788.7-32,893.6,2.4,1001.7,21.9l126.1-232.6c28.3,2.7,56.8,4.1,85.2,4.3
					c27.7-0.2,55.5-1.7,83.1-4.3l126.1,233.8c108.1-19.4,213-53.6,311.8-101.7l-34.8-263c48.1-28.8,93.5-61.8,135.7-98.5
					l238.9,114.8c76.4-78.9,141.7-167.9,193.8-264.6l-26.7-83.7l-141.1-148.5c14.9-39.1,27.2-79.2,36.8-120l260.4-47.5
					c8.1-54.8,12.4-110,12.9-165.4c-0.5-54.5-4.6-108.9-12.5-162.8l-30-65.3l-248.3-45.8c-8.3-28.3-17.9-56.1-28.8-83.5
					c-1.5-4.5-3-9.1-4.5-13.6l182.7-191.4l-26.7-55.1c-18.1-34.2-38-67.4-59.4-99.5c-0.2-0.3-0.5-0.7-0.7-1
					c-21.3-31.9-44.2-62.8-68.5-92.4c-0.4-0.6-0.9-1.1-1.3-1.6c-18.2-22.1-37.3-43.7-57.1-64.4l-233.6,111.6
					c-21.3-18.4-43.4-35.7-66.3-52.1c-5.9-4.2-11.9-8.4-17.9-12.5c-10.2-6.9-20.4-13.6-30.9-20.1l30.3-225l-13.2-42.2
					c-34.8-17-70.4-32.2-106.7-45.6c-0.3-0.1-0.6-0.2-0.9-0.3c-36.1-13.3-72.8-24.8-110-34.5c-0.6-0.2-1.3-0.3-1.9-0.5
					c-27.9-7.2-56-13.4-84.4-18.6l-122.9,226.7c-27.6-2.6-55.3-4-83.1-4.2c-27,0.2-54.1,1.6-81,4.2L1009.2-2372.6L1009.2-2372.6z
					 M1213-1774c275.9,0.1,518.5,182.9,594.7,448c0,0,0,0,0,0c0,0,0,0.1,0,0.1c3.2,18.6,5.4,37.4,6.8,56.2c0.2,2.5,0.3,5,0.5,7.5
					c0.8,12.5,1.3,25.1,1.3,37.7c0,142.1-50.2,279.6-141.7,388.4c-0.2,0.2-0.3,0.4-0.5,0.6c-12.7,15-26.1,29.4-40.2,43.1
					c-0.4,0.4-0.9,0.9-1.3,1.3c-14.2,13.8-29.1,26.9-44.6,39.2c0,0,0,0,0,0c0,0,0,0,0,0c-95.2,75.5-211,120.5-332.2,129.2
					c-0.2,0-0.3,0-0.5,0c-14.1,1-28.2,1.5-42.3,1.5c-142.1,0-279.6-50.2-388.4-141.7c-0.2-0.2-0.4-0.3-0.6-0.5
					c-15-12.7-29.4-26.1-43.1-40.2c-0.4-0.4-0.9-0.9-1.3-1.3c-13.8-14.2-26.9-29.1-39.2-44.6c0,0,0-0.1-0.1-0.1
					c-75.5-95.2-120.5-211-129.2-332.2c0-0.2,0-0.3,0-0.5c-1-14.1-1.5-28.2-1.5-42.3c0.1-17.8,1-35.7,2.7-53.4
					c0.6-6.5,1.4-12.9,2.2-19.3c1.3-10.6,2.9-21.2,4.8-31.8c0-0.1,0-0.2,0.1-0.3C696.7-1592.7,938.4-1773.8,1213-1774L1213-1774z"/>
			</defs>
			<clipPath id="SVGID_1_">
				<use xlink:href="#SVGID_5_"  style="overflow:visible;"/>
			</clipPath>
			<g id="g4645" class="st4">
				<path id="path4412-7-1-6" class="st5" d="M1009.2-2372.6c-105.4,18.9-207.6,52.3-303.9,99.1l33.9,256.3
					c-46.8,28-91.1,60.2-132.3,96L374.1-2033c-74.5,76.9-138.1,163.7-188.9,257.9L363.1-1588c-21.3,50.5-38.1,102.7-50.2,156.1
					l-253.8,46.3c-7.9,53.4-12.1,107.2-12.6,161.2c0.4,53.1,4.5,106.1,12.2,158.7l254,46.9c12.1,53.2,28.9,105.3,50.2,155.6
					l-178.5,187c50.2,94.5,113.1,181.7,187.1,259.1l233.5-111.6c41.2,35.9,85.6,68,132.5,96l-34.4,255.8
					c96.3,47,198.5,80.5,303.9,99.6l122.9-226.7c27.6,2.6,55.3,4,83.1,4.2c27-0.2,54.1-1.6,81-4.2l122.9,227.8
					c105.4-18.9,207.6-52.3,303.9-99.1l-33.9-256.3c46.8-28,91.1-60.2,132.3-96l232.8,111.9c74.5-76.9,138.1-163.7,188.9-257.9
					l-177.9-187.1c21.3-50.5,38.1-102.7,50.2-156.1l253.8-46.3c7.9-53.4,12.1-107.2,12.6-161.2c-0.4-53.1-4.5-106.1-12.2-158.7
					l-254-46.9c-12.1-53.2-28.9-105.3-50.2-155.6l178.5-187c-50.2-94.5-113.1-181.7-187.1-259.1l-233.5,111.6
					c-41.2-35.9-85.6-68-132.5-96l34.4-255.8c-96.3-47-198.5-80.5-303.9-99.6l-122.9,226.7c-27.6-2.6-55.3-4-83.1-4.2
					c-27,0.2-54.1,1.6-81,4.2L1009.2-2372.6z M1213-1827.7c333.2,0,603.3,270.1,603.3,603.3c0,0,0,0,0,0
					c0,333.2-270.1,603.3-603.3,603.3c0,0,0,0,0,0c-333.2,0-603.3-270.1-603.3-603.3c0,0,0,0,0,0
					C609.7-1557.6,879.8-1827.7,1213-1827.7C1213-1827.7,1213-1827.7,1213-1827.7z"/>
				<g id="g4431" transform="matrix(1,0,0,-1,0,43.16015)" class="st1">
					
						<radialGradient id="path4500_1_" cx="72.9308" cy="929.8867" r="1184.0662" gradientTransform="matrix(1.9974 -0.5597 -0.3806 -1.3581 663.5389 3512.4385)" gradientUnits="userSpaceOnUse">
						<stop  offset="0" style="stop-color:#FFFFFF"/>
						<stop  offset="0.3681" style="stop-color:#2E3436"/>
						<stop  offset="0.8385" style="stop-color:#EEEEEC"/>
						<stop  offset="1" style="stop-color:#555753"/>
					</radialGradient>
					<path id="path4500" class="st6" d="M2267.5,633.1l-26.7,83.7l-141.1,148.5l-14.7-40.2L2267.5,633.1z"/>
					
						<radialGradient id="path4502_1_" cx="72.9308" cy="929.8867" r="1184.0662" gradientTransform="matrix(1.9974 -0.5597 -0.3806 -1.3581 663.5389 3512.4385)" gradientUnits="userSpaceOnUse">
						<stop  offset="0" style="stop-color:#FFFFFF"/>
						<stop  offset="0.3681" style="stop-color:#2E3436"/>
						<stop  offset="0.8385" style="stop-color:#EEEEEC"/>
						<stop  offset="1" style="stop-color:#555753"/>
					</radialGradient>
					<path id="path4502" class="st7" d="M2397.3,1361l-30,65.3l-248.3,45.8l17.7-63L2397.3,1361z"/>
					
						<radialGradient id="path4504_1_" cx="72.9308" cy="929.8867" r="1184.0662" gradientTransform="matrix(1.9974 -0.5597 -0.3806 -1.3581 663.5389 3512.4385)" gradientUnits="userSpaceOnUse">
						<stop  offset="0" style="stop-color:#FFFFFF"/>
						<stop  offset="0.3681" style="stop-color:#2E3436"/>
						<stop  offset="0.8385" style="stop-color:#EEEEEC"/>
						<stop  offset="1" style="stop-color:#555753"/>
					</radialGradient>
					<path id="path4504" class="st8" d="M2076.4,2026.4l-21.9,48.4l-233.5-111.6l15.8-51.3L2076.4,2026.4z"/>
					
						<radialGradient id="path4506_1_" cx="72.9308" cy="929.8867" r="1184.0662" gradientTransform="matrix(1.9974 -0.5597 -0.3806 -1.3581 663.5389 3512.4385)" gradientUnits="userSpaceOnUse">
						<stop  offset="0" style="stop-color:#FFFFFF"/>
						<stop  offset="0.3681" style="stop-color:#2E3436"/>
						<stop  offset="0.8385" style="stop-color:#EEEEEC"/>
						<stop  offset="1" style="stop-color:#555753"/>
					</radialGradient>
					<path id="path4506" class="st9" d="M1298.2,2142.5l-2.2,45.5l122.9,226.7l5.4-39.6L1298.2,2142.5z"/>
					
						<radialGradient id="path4508_1_" cx="72.9308" cy="929.8867" r="1184.0662" gradientTransform="matrix(1.9974 -0.5597 -0.3806 -1.3581 663.5389 3512.4385)" gradientUnits="userSpaceOnUse">
						<stop  offset="0" style="stop-color:#FFFFFF"/>
						<stop  offset="0.3681" style="stop-color:#2E3436"/>
						<stop  offset="0.8385" style="stop-color:#EEEEEC"/>
						<stop  offset="1" style="stop-color:#555753"/>
					</radialGradient>
					<path id="path4508" class="st10" d="M1129.9,2142.4l2.1,45.5l-122.9,227.8l-5.3-39.5L1129.9,2142.4z"/>
					
						<radialGradient id="path4510_1_" cx="72.9308" cy="929.8867" r="1184.0662" gradientTransform="matrix(1.9974 -0.5597 -0.3806 -1.3581 663.5389 3512.4385)" gradientUnits="userSpaceOnUse">
						<stop  offset="0" style="stop-color:#FFFFFF"/>
						<stop  offset="0.3681" style="stop-color:#2E3436"/>
						<stop  offset="0.8385" style="stop-color:#EEEEEC"/>
						<stop  offset="1" style="stop-color:#555753"/>
					</radialGradient>
					<path id="path4510" class="st11" d="M591.2,1913l15.8,51.3l-232.8,111.9l-21.8-48.4L591.2,1913z"/>
					
						<radialGradient id="path4512_1_" cx="72.9308" cy="929.8867" r="1184.0662" gradientTransform="matrix(1.9974 -0.5597 -0.3806 -1.3581 663.5389 3512.4385)" gradientUnits="userSpaceOnUse">
						<stop  offset="0" style="stop-color:#FFFFFF"/>
						<stop  offset="0.3681" style="stop-color:#2E3436"/>
						<stop  offset="0.8385" style="stop-color:#EEEEEC"/>
						<stop  offset="1" style="stop-color:#555753"/>
					</radialGradient>
					<path id="path4512" class="st12" d="M29.1,1363.5l30,65.2l247.1,45.1l-16.8-62.8L29.1,1363.5z"/>
					
						<radialGradient id="path4514_1_" cx="72.9308" cy="929.8867" r="1184.0662" gradientTransform="matrix(1.9974 -0.5597 -0.3806 -1.3581 663.5389 3512.4385)" gradientUnits="userSpaceOnUse">
						<stop  offset="0" style="stop-color:#FFFFFF"/>
						<stop  offset="0.3681" style="stop-color:#2E3436"/>
						<stop  offset="0.8385" style="stop-color:#EEEEEC"/>
						<stop  offset="1" style="stop-color:#555753"/>
					</radialGradient>
					<path id="path4514" class="st13" d="M157.7,635.7l26.7,83.6l141.3,148.1l15.1-39.8L157.7,635.7z"/>
				</g>
				
					<radialGradient id="path4412-7-1-6-0-6_1_" cx="-632.9438" cy="-2506.655" r="1054.8951" gradientTransform="matrix(-0.7863 1.8915 -2.6679 -1.109 -6545.2378 -3572.8521)" gradientUnits="userSpaceOnUse">
					<stop  offset="0" style="stop-color:#FFFFFF"/>
					<stop  offset="0.474" style="stop-color:#555753"/>
					<stop  offset="1" style="stop-color:#EEEEEC"/>
				</radialGradient>
				<path id="path4412-7-1-6-0-6" class="st14" d="M1009.2-2372.6c-105.4,18.9-207.6,52.3-303.9,99.1l-13.2,42.1
					c0,0,210.1-83.2,311.8-101.7L1009.2-2372.6z M1418.9-2371.5l5.4,39.6c101.7,18.7,311.8,102.2,311.8,102.2l-13.2-42.2
					C1626.6-2318.9,1524.3-2352.4,1418.9-2371.5z M1213-2149c-27,0.2-54.1,1.6-81,4.2l-2.1,45.5c27.6-2.7,55.3-4.1,83.1-4.3
					c28.5,0.1,56.9,1.6,85.2,4.3l-2.2-45.5C1268.4-2147.4,1240.7-2148.8,1213-2149L1213-2149z M374.1-2033
					c-74.5,76.9-138.1,163.7-188.9,257.9l-26.7,55.1c0,0,131.5-199.9,193.8-264.6L374.1-2033z M2054.5-2031.7l21.9,48.4
					c61.7,65.3,192,265.8,192,265.8l-26.7-55.1C2191.4-1867.1,2128.5-1954.3,2054.5-2031.7z M722-2005.7
					c-40.5,25.2-78.9,53.4-115,84.5l-15.8,51.3c42.2-36.8,87.6-69.8,135.7-98.5L722-2005.7z M1705.8-2004.7l-5,37.5
					c48.1,28.7,93.6,61.7,136,98.5l-15.8-51.3C1784.8-1951.2,1746.3-1979.5,1705.8-2004.7z"/>
				<path id="path4412-7-1-6-5-2" class="st15" d="M1009.2-2372.6c-38.2,6.9-76,15.7-113.3,26.3l-0.5,0.1
					c-37.1,10.6-73.6,23-109.4,37.2c-0.5,0.2-1.1,0.4-1.6,0.6c-26.7,10.6-53.1,22.2-79,34.8l-13.2,42.1l29.9,225.7
					c-17,10.6-33.7,21.8-50,33.5c-6.2,4.5-12.4,9-18.5,13.6c-15.9,12-31.4,24.4-46.5,37.4L374.1-2033
					c-26.9,27.8-52.4,56.9-76.4,87.2c-0.2,0.3-0.5,0.6-0.7,0.9c-23.9,30.2-46.2,61.5-67,93.9c-0.3,0.5-0.6,0.9-0.9,1.4
					c-15.5,24.3-30.2,49.1-43.9,74.5l-26.7,55.1L341-1528c-13.3,31.8-24.9,64.3-34.7,97.4L-15.3-1377l-30,65.2
					c-8.1,54.8-12.4,110-12.9,165.4c0.5,54.5,4.6,108.9,12.5,162.8l335,39.5c9.5,40.7,21.7,80.7,36.4,119.8L127.2-621.8l-26.7,83.6
					c51.5,97,173.3,132.1,249.2,211.5l239.6-114.5c42.3,36.8,87.8,69.7,136,98.5L689.9-80.2C788.7-32,893.6,2.4,1001.7,21.9
					l126.1-232.6c28.3,2.7,56.8,4.1,85.2,4.3c27.7-0.2,55.5-1.7,83.1-4.3l126.1,233.8c108.1-19.4,213-53.6,311.8-101.7l-34.8-263
					c48.1-28.8,93.5-61.8,135.7-98.5l278.9,154.8c76.4-78.9,141.7-167.9,193.8-264.6l-26.7-83.7l-181.2-188.5
					c14.9-39.1,27.2-79.2,36.8-120l331.9-36c8.1-54.8,12.4-110,12.9-165.4c-0.5-54.5-4.6-108.9-12.5-162.8l-30-65.3l-319.8-57.3
					c-8.3-28.3-17.9-56.1-28.8-83.5c-1.5-4.5-3-9.1-4.5-13.6l304.1-243.5l-26.7-55.1c-18.1-34.2-38-67.4-59.4-99.5
					c-0.2-0.3-0.5-0.7-0.7-1c-21.3-31.9-44.2-62.8-68.5-92.4c-0.4-0.5-0.9-1.1-1.3-1.6c-18.2-22.1-37.3-43.7-57.1-64.4l-355,163.6
					c-21.3-18.4-43.4-35.7-66.3-52.1c-5.9-4.2-11.9-8.4-17.9-12.5c-10.2-6.9-20.4-13.6-30.9-20.1l30.3-225l-13.2-42.2
					c-34.8-17-70.4-32.2-106.7-45.6c-0.3-0.1-0.6-0.2-0.9-0.3c-36.1-13.3-72.8-24.8-110-34.5c-0.6-0.2-1.3-0.3-1.9-0.5
					c-27.9-7.2-56-13.4-84.4-18.6l-122.9,226.7c-27.6-2.6-55.3-4-83.1-4.2c-27,0.2-54.1,1.6-81,4.2L1009.2-2372.6L1009.2-2372.6z
					 M1213-1774c275.9,0.1,518.5,182.9,594.7,448c0,0,0,0,0,0c0,0,0,0.1,0,0.1c3.2,18.6,5.4,37.4,6.8,56.2c0.2,2.5,0.3,5,0.5,7.5
					c0.8,12.5,1.3,25.1,1.3,37.7c0,142.1-50.2,279.6-141.7,388.4c-0.2,0.2-0.3,0.4-0.5,0.6c-12.7,15-26.1,29.4-40.2,43.1
					c-0.4,0.4-0.9,0.9-1.3,1.3c-14.2,13.8-29.1,26.9-44.6,39.2l0,0c0,0,0,0,0,0c-95.2,75.5-211,120.5-332.2,129.2l-0.5,0
					c-14.1,1-28.2,1.5-42.3,1.5c-142.1,0-279.6-50.2-388.4-141.7c-0.2-0.2-0.4-0.3-0.6-0.5c-15-12.7-29.4-26.1-43.1-40.2
					c-0.4-0.4-0.9-0.9-1.3-1.3c-13.8-14.2-26.9-29.1-39.2-44.6l-0.1-0.1c-75.5-95.2-120.5-211-129.2-332.2l0-0.5
					c-1-14.1-1.5-28.2-1.5-42.3c0.1-17.8,1-35.7,2.7-53.4c0.6-6.5,1.4-12.9,2.2-19.3c1.3-10.6,2.9-21.2,4.8-31.8l0.1-0.3
					C696.7-1592.7,938.4-1773.8,1213-1774L1213-1774z"/>
				<g id="g4420" transform="translate(730)">
					
						<radialGradient id="path4412-7-1_1_" cx="-999.3707" cy="-2654.1848" r="1196.7721" gradientTransform="matrix(1.459 1.0187 -1.9308 2.7654 -3807.4653 7916.5962)" gradientUnits="userSpaceOnUse">
						<stop  offset="0" style="stop-color:#EEEEEC"/>
						<stop  offset="0.4" style="stop-color:#E4E5E2"/>
						<stop  offset="1" style="stop-color:#888A85"/>
					</radialGradient>
					<path id="path4412-7-1" class="st16" d="M273.9-2333c-108.1,19.4-213,53.6-311.8,101.7l34.8,263
						c-48.1,28.8-93.5,61.8-135.7,98.5l-238.9-114.8c-76.4,78.9-141.7,167.9-193.8,264.6l182.5,192
						c-21.9,51.8-39.1,105.4-51.5,160.2l-260.4,47.5c-8.1,54.8-12.4,110-12.9,165.4c0.5,54.5,4.6,108.9,12.5,162.8l260.6,48.1
						c12.4,54.6,29.7,108,51.5,159.6l-183.2,191.9c51.5,97,116.1,186.5,192,265.8l239.6-114.5c42.3,36.8,87.8,69.7,136,98.5
						L-40.1-80.2C58.7-32,163.6,2.4,271.7,21.9l126.1-232.6c28.3,2.7,56.8,4.1,85.2,4.3c27.7-0.2,55.5-1.7,83.1-4.3L692.1,23.1
						c108.1-19.4,213-53.6,311.8-101.7l-34.8-263c48.1-28.8,93.5-61.8,135.7-98.5l238.9,114.8c76.4-78.9,141.7-167.9,193.8-264.6
						l-182.5-192c21.9-51.8,39.1-105.4,51.5-160.2l260.4-47.5c8.1-54.8,12.4-110,12.9-165.4c-0.5-54.5-4.6-108.9-12.5-162.8
						l-260.6-48.1c-12.4-54.6-29.7-108-51.5-159.6l183.2-191.9c-51.5-97-116.1-186.5-192-265.8l-239.6,114.5
						c-42.3-36.8-87.8-69.7-136-98.5l35.3-262.5c-98.8-48.2-203.7-82.6-311.8-102.2l-126.1,232.6c-28.3-2.7-56.8-4.1-85.2-4.3
						c-27.7,0.2-55.5,1.7-83.1,4.3L273.9-2333z M483-1774c341.9,0,624.8,277.1,624.8,619c0,341.9-282.9,624.8-624.8,624.8
						c-341.9,0-624.8-282.9-624.8-624.8C-141.8-1496.8,141.1-1774,483-1774z"/>
				</g>
				<pattern  id="path4412-7-1-3_1_" xlink:href="#pattern6280" patternTransform="matrix(0.6092 0 0 0.6092 -2676.3594 223.8512)">
				</pattern>
				<path id="path4412-7-1-3" class="st17" d="M1003.9-2333c-108.1,19.4-213,53.6-311.8,101.7l34.8,263
					c-48.1,28.8-93.5,61.8-135.7,98.5l-238.9-114.8c-76.4,78.9-141.7,167.9-193.8,264.6L341-1528c-21.9,51.8-39.1,105.4-51.5,160.2
					l-260.4,47.5c-8.1,54.8-12.4,110-12.9,165.4c0.5,54.5,4.6,108.9,12.5,162.8L289.3-944c12.4,54.6,29.7,108,51.5,159.6
					L157.7-592.5c51.5,97,116.1,186.5,192,265.8l239.6-114.5c42.3,36.8,87.8,69.7,136,98.5L689.9-80.2
					C788.7-32,893.6,2.4,1001.7,21.9l126.1-232.6c28.3,2.7,56.8,4.1,85.2,4.3c27.7-0.2,55.5-1.7,83.1-4.3l126.1,233.8
					c108.1-19.4,213-53.6,311.8-101.7l-34.8-263c48.1-28.8,93.5-61.8,135.7-98.5l238.9,114.8c76.4-78.9,141.7-167.9,193.8-264.6
					l-182.5-192c21.9-51.8,39.1-105.4,51.5-160.2l260.4-47.5c8.1-54.8,12.4-110,12.9-165.4c-0.5-54.5-4.6-108.9-12.5-162.8
					l-260.6-48.1c-12.4-54.6-29.7-108-51.5-159.6l183.2-191.9c-51.5-97-116.1-186.5-192-265.8l-239.6,114.5
					c-42.3-36.8-87.8-69.7-136-98.5l35.3-262.5c-98.8-48.2-203.7-82.6-311.8-102.2l-126.1,232.6c-28.3-2.7-56.8-4.1-85.2-4.3
					c-27.7,0.2-55.5,1.7-83.1,4.3L1003.9-2333z M1213-1774c341.9,0,624.8,277.1,624.8,619c0,341.9-282.9,624.8-624.8,624.8
					c-341.9,0-624.8-282.9-624.8-624.8C588.2-1496.8,871.1-1774,1213-1774z"/>
			</g>
		</g>
		
			<radialGradient id="path4412-7-1-6-0-3_1_" cx="2392.2051" cy="-2274.2097" r="619.0204" gradientTransform="matrix(0.5744 0 0 5.9351 131.291 12844.335)" gradientUnits="userSpaceOnUse">
			<stop  offset="0" style="stop-color:#EEEEEC"/>
			<stop  offset="1" style="stop-color:#555753"/>
		</radialGradient>
		<path id="path4412-7-1-6-0-3" class="st18" d="M1807.7-1325.9c5.8,33.6,8.7,67.5,8.7,101.6c0,333.2-270.1,603.3-603.3,603.3
			c-333.2,0-603.3-270.1-603.3-603.3c0.2-35.2,3.5-70.3,9.8-104.9c-16.7,56.6-25.3,115.3-25.4,174.3c0,341.9,277.1,619,619,619
			c341.9,0,619-277.1,619-619C1831.9-1212.8,1823.7-1270.4,1807.7-1325.9z"/>
		<g id="g4268" transform="matrix(1,0,0,-1,3.650692e-7,42.160145)" class="st1">
			
				<radialGradient id="path5247-2-7_1_" cx="10010.5303" cy="4209.771" r="1195.3386" gradientTransform="matrix(0.1983 0.1733 8.825287e-02 -0.101 -91.8122 73.4541)" gradientUnits="userSpaceOnUse">
				<stop  offset="0" style="stop-color:#FFFFFF"/>
				<stop  offset="1" style="stop-color:#FFFFFF;stop-opacity:0"/>
			</radialGradient>
			<path id="path5247-2-7" class="st19" d="M1425.5,26.4l-123.8,229.5c-1.2,2.3-3.7,3.6-6.3,3.4c-27.4-2.6-54.9-4.1-82.4-4.3h-0.1
				c-28.2,0.1-56.4,1.6-84.5,4.2c-2.6,0.2-5-1.1-6.3-3.3L998.4,27.5c-104.4,19.3-205.8,52.5-301.4,98.8L731.6,384
				c0.3,2.6-0.9,5.1-3.1,6.4c-47.8,28.6-93,61.3-135,97.8c-1.9,1.7-4.7,2.1-7,0.9L351.2,376.7c-73,77-135.4,163.4-185.6,257
				l179.8,188.4c1.8,1.9,2.3,4.6,1.3,7c-21.7,51.2-38.8,104.3-51.2,158.5c-0.6,2.5-2.6,4.4-5.1,4.9l-255.9,47.2
				c-7.4,52.1-11.5,104.7-11.9,157.3c0,0,0,0,0,0.1c0,0,0,0,0,0.1c0.5,53.5,4.7,106.9,12.3,159.8l255.7,46.6
				c2.5,0.5,4.6,2.4,5.1,4.9c12.3,54.4,29.4,107.7,51.2,159.1c1,2.4,0.5,5.1-1.3,6.9l-179.1,188.5
				c50.8,93.2,113.8,179.3,187.3,255.8l234.6-112.7c2.3-1.1,5.1-0.7,7,0.9c41.9,36.5,87,69.3,134.8,97.9c2.2,1.3,3.4,3.8,3.1,6.4
				l-34.2,258.2c95.6,46.1,197,79.1,301.4,98.3l123.8-229.5c1.2-2.3,3.7-3.6,6.3-3.4c27.4,2.6,55,4.1,82.5,4.3
				c28.2-0.1,56.4-1.6,84.5-4.2c2.6-0.2,5,1.1,6.3,3.3l123.7,228.3c104.4-19.3,205.8-52.5,301.4-98.8l-34.7-257.7
				c-0.3-2.6,0.9-5.1,3.1-6.4c47.8-28.6,93-61.3,135-97.8c1.9-1.7,4.7-2.1,7-0.9l235.3,112.4c73-77,135.4-163.4,185.6-257
				l-179.8-188.4c-1.8-1.9-2.3-4.6-1.3-7c21.7-51.2,38.8-104.3,51.2-158.5c0.6-2.5,2.6-4.4,5.1-4.9l255.9-47.2
				c7.4-52.1,11.5-104.7,11.9-157.3v-0.1c-0.5-53.5-4.7-106.9-12.3-159.9l-255.7-46.6c-2.5-0.5-4.6-2.4-5.1-4.9
				c-12.3-54.4-29.4-107.7-51.2-159.1c-1-2.4-0.5-5.1,1.3-6.9l179.1-188.5c-50.8-93.2-113.8-179.3-187.3-255.8L1837.6,488
				c-2.3,1.1-5.1,0.7-7-0.9c-41.9-36.5-87-69.3-134.8-97.9c-2.2-1.3-3.4-3.8-3.1-6.4l34.2-258.2
				C1631.2,78.6,1529.9,45.6,1425.5,26.4z"/>
			
				<radialGradient id="path5247-2-7-2_1_" cx="4203.4702" cy="5410.5547" r="1194.9497" gradientTransform="matrix(0.1983 0.1733 8.825287e-02 -0.101 -91.8122 73.4541)" gradientUnits="userSpaceOnUse">
				<stop  offset="0" style="stop-color:#FFFFFF"/>
				<stop  offset="1" style="stop-color:#FFFFFF;stop-opacity:0"/>
			</radialGradient>
			<path id="path5247-2-7-2" class="st20" d="M1425.5,26.4l-123.8,229.5c-1.2,2.3-3.7,3.6-6.3,3.4c-27.4-2.6-54.9-4.1-82.4-4.3h-0.1
				c-28.2,0.1-56.4,1.6-84.5,4.2c-2.6,0.2-5-1.1-6.3-3.3L998.4,27.5c-104.4,19.3-205.8,52.5-301.4,98.8L731.6,384
				c0.3,2.6-0.9,5.1-3.1,6.4c-47.8,28.6-93,61.3-135,97.8c-1.9,1.7-4.7,2.1-7,0.9L351.2,376.7c-73,77-135.4,163.4-185.6,257
				l179.8,188.4c1.8,1.9,2.3,4.6,1.3,7c-21.7,51.2-38.8,104.3-51.2,158.5c-0.6,2.5-2.6,4.4-5.1,4.9l-255.9,47.2
				c-7.4,52.1-11.5,104.7-11.9,157.3c0,0,0,0,0,0.1c0,0,0,0,0,0.1c0.5,53.5,4.7,106.9,12.3,159.8l255.7,46.6
				c2.5,0.5,4.6,2.4,5.1,4.9c12.3,54.4,29.4,107.7,51.2,159.1c1,2.4,0.5,5.1-1.3,6.9l-179.1,188.5
				c50.8,93.2,113.8,179.3,187.3,255.8l234.6-112.7c2.3-1.1,5.1-0.7,7,0.9c41.9,36.5,87,69.3,134.8,97.9c2.2,1.3,3.4,3.8,3.1,6.4
				l-34.2,258.2c95.6,46.1,197,79.1,301.4,98.3l123.8-229.5c1.2-2.3,3.7-3.6,6.3-3.4c27.4,2.6,55,4.1,82.5,4.3
				c28.2-0.1,56.4-1.6,84.5-4.2c2.6-0.2,5,1.1,6.3,3.3l123.7,228.3c104.4-19.3,205.8-52.5,301.4-98.8l-34.7-257.7
				c-0.3-2.6,0.9-5.1,3.1-6.4c47.8-28.6,93-61.3,135-97.8c1.9-1.7,4.7-2.1,7-0.9l235.3,112.4c73-77,135.4-163.4,185.6-257
				l-179.8-188.4c-1.8-1.9-2.3-4.6-1.3-7c21.7-51.2,38.8-104.3,51.2-158.5c0.6-2.5,2.6-4.4,5.1-4.9l255.9-47.2
				c7.4-52.1,11.5-104.7,11.9-157.3v-0.1c-0.5-53.5-4.7-106.9-12.3-159.9l-255.7-46.6c-2.5-0.5-4.6-2.4-5.1-4.9
				c-12.3-54.4-29.4-107.7-51.2-159.1c-1-2.4-0.5-5.1,1.3-6.9l179.1-188.5c-50.8-93.2-113.8-179.3-187.3-255.8L1837.6,488
				c-2.3,1.1-5.1,0.7-7-0.9c-41.9-36.5-87-69.3-134.8-97.9c-2.2-1.3-3.4-3.8-3.1-6.4l34.2-258.2
				C1631.2,78.6,1529.9,45.6,1425.5,26.4z"/>
			
				<radialGradient id="path5247-2_1_" cx="992.9809" cy="-10992.4941" r="1195.4274" gradientTransform="matrix(0.1316 -3.527445e-02 -3.471683e-02 -0.1296 191.8263 586.2135)" gradientUnits="userSpaceOnUse">
				<stop  offset="0" style="stop-color:#FFFFFF"/>
				<stop  offset="1" style="stop-color:#FFFFFF;stop-opacity:0"/>
			</radialGradient>
			<path id="path5247-2" class="st21" d="M1425.5,26.4l-123.8,229.5c-1.2,2.3-3.7,3.6-6.3,3.4c-27.4-2.6-54.9-4.1-82.4-4.3h-0.1
				c-28.2,0.1-56.4,1.6-84.5,4.2c-2.6,0.2-5-1.1-6.3-3.3L998.4,27.5c-104.4,19.3-205.8,52.5-301.4,98.8L731.6,384
				c0.3,2.6-0.9,5.1-3.1,6.4c-47.8,28.6-93,61.3-135,97.8c-1.9,1.7-4.7,2.1-7,0.9L351.2,376.7c-73,77-135.4,163.4-185.6,257
				l179.8,188.4c1.8,1.9,2.3,4.6,1.3,7c-21.7,51.2-38.8,104.3-51.2,158.5c-0.6,2.5-2.6,4.4-5.1,4.9l-255.9,47.2
				c-7.4,52.1-11.5,104.7-11.9,157.3c0,0,0,0,0,0.1c0,0,0,0,0,0.1c0.5,53.5,4.7,106.9,12.3,159.8l255.7,46.6
				c2.5,0.5,4.6,2.4,5.1,4.9c12.3,54.4,29.4,107.7,51.2,159.1c1,2.4,0.5,5.1-1.3,6.9l-179.1,188.5
				c50.8,93.2,113.8,179.3,187.3,255.8l234.6-112.7c2.3-1.1,5.1-0.7,7,0.9c41.9,36.5,87,69.3,134.8,97.9c2.2,1.3,3.4,3.8,3.1,6.4
				l-34.2,258.2c95.6,46.1,197,79.1,301.4,98.3l123.8-229.5c1.2-2.3,3.7-3.6,6.3-3.4c27.4,2.6,55,4.1,82.5,4.3
				c28.2-0.1,56.4-1.6,84.5-4.2c2.6-0.2,5,1.1,6.3,3.3l123.7,228.3c104.4-19.3,205.8-52.5,301.4-98.8l-34.7-257.7
				c-0.3-2.6,0.9-5.1,3.1-6.4c47.8-28.6,93-61.3,135-97.8c1.9-1.7,4.7-2.1,7-0.9l235.3,112.4c73-77,135.4-163.4,185.6-257
				l-179.8-188.4c-1.8-1.9-2.3-4.6-1.3-7c21.7-51.2,38.8-104.3,51.2-158.5c0.6-2.5,2.6-4.4,5.1-4.9l255.9-47.2
				c7.4-52.1,11.5-104.7,11.9-157.3v-0.1c-0.5-53.5-4.7-106.9-12.3-159.9l-255.7-46.6c-2.5-0.5-4.6-2.4-5.1-4.9
				c-12.3-54.4-29.4-107.7-51.2-159.1c-1-2.4-0.5-5.1,1.3-6.9l179.1-188.5c-50.8-93.2-113.8-179.3-187.3-255.8L1837.6,488
				c-2.3,1.1-5.1,0.7-7-0.9c-41.9-36.5-87-69.3-134.8-97.9c-2.2-1.3-3.4-3.8-3.1-6.4l34.2-258.2
				C1631.2,78.6,1529.9,45.6,1425.5,26.4z"/>
			
				<radialGradient id="path5247_1_" cx="289.912" cy="-1180.8289" r="1195.3989" gradientTransform="matrix(0.1316 -3.527445e-02 -3.471683e-02 -0.1296 191.8263 586.2135)" gradientUnits="userSpaceOnUse">
				<stop  offset="0" style="stop-color:#FFFFFF"/>
				<stop  offset="1" style="stop-color:#FFFFFF;stop-opacity:0"/>
			</radialGradient>
			<path id="path5247" class="st22" d="M1425.5,26.4l-123.8,229.5c-1.2,2.3-3.7,3.6-6.3,3.4c-27.4-2.6-54.9-4.1-82.4-4.3h-0.1
				c-28.2,0.1-56.4,1.6-84.5,4.2c-2.6,0.2-5-1.1-6.3-3.3L998.4,27.5c-104.4,19.3-205.8,52.5-301.4,98.8L731.6,384
				c0.3,2.6-0.9,5.1-3.1,6.4c-47.8,28.6-93,61.3-135,97.8c-1.9,1.7-4.7,2.1-7,0.9L351.2,376.7c-73,77-135.4,163.4-185.6,257
				l179.8,188.4c1.8,1.9,2.3,4.6,1.3,7c-21.7,51.2-38.8,104.3-51.2,158.5c-0.6,2.5-2.6,4.4-5.1,4.9l-255.9,47.2
				c-7.4,52.1-11.5,104.7-11.9,157.3c0,0,0,0,0,0.1c0,0,0,0,0,0.1c0.5,53.5,4.7,106.9,12.3,159.8l255.7,46.6
				c2.5,0.5,4.6,2.4,5.1,4.9c12.3,54.4,29.4,107.7,51.2,159.1c1,2.4,0.5,5.1-1.3,6.9l-179.1,188.5
				c50.8,93.2,113.8,179.3,187.3,255.8l234.6-112.7c2.3-1.1,5.1-0.7,7,0.9c41.9,36.5,87,69.3,134.8,97.9c2.2,1.3,3.4,3.8,3.1,6.4
				l-34.2,258.2c95.6,46.1,197,79.1,301.4,98.3l123.8-229.5c1.2-2.3,3.7-3.6,6.3-3.4c27.4,2.6,55,4.1,82.5,4.3
				c28.2-0.1,56.4-1.6,84.5-4.2c2.6-0.2,5,1.1,6.3,3.3l123.7,228.3c104.4-19.3,205.8-52.5,301.4-98.8l-34.7-257.7
				c-0.3-2.6,0.9-5.1,3.1-6.4c47.8-28.6,93-61.3,135-97.8c1.9-1.7,4.7-2.1,7-0.9l235.3,112.4c73-77,135.4-163.4,185.6-257
				l-179.8-188.4c-1.8-1.9-2.3-4.6-1.3-7c21.7-51.2,38.8-104.3,51.2-158.5c0.6-2.5,2.6-4.4,5.1-4.9l255.9-47.2
				c7.4-52.1,11.5-104.7,11.9-157.3v-0.1c-0.5-53.5-4.7-106.9-12.3-159.9l-255.7-46.6c-2.5-0.5-4.6-2.4-5.1-4.9
				c-12.3-54.4-29.4-107.7-51.2-159.1c-1-2.4-0.5-5.1,1.3-6.9l179.1-188.5c-50.8-93.2-113.8-179.3-187.3-255.8L1837.6,488
				c-2.3,1.1-5.1,0.7-7-0.9c-41.9-36.5-87-69.3-134.8-97.9c-2.2-1.3-3.4-3.8-3.1-6.4l34.2-258.2
				C1631.2,78.6,1529.9,45.6,1425.5,26.4z"/>
		</g>
		<g id="g4395" transform="matrix(1,0,0,-1,-1.2841797e-6,42.160145)" class="st1">
			<g>
				<defs>
					<path id="SVGID_7_" d="M1003.9,2381c-108.1-19.4-213-53.6-311.8-101.7l34.8-263c-48.1-28.8-93.5-61.8-135.7-98.5l-238.9,114.8
						c-76.4-78.9-141.7-167.9-193.8-264.6L341,1576c-21.9-51.8-39.1-105.4-51.5-160.2l-260.4-47.5c-8.1-54.8-12.4-110-12.9-165.4
						c0.5-54.5,4.6-108.9,12.5-162.8L289.3,992c12.4-54.6,29.7-108,51.5-159.6L157.7,640.5c51.5-97,116.1-186.5,192-265.8
						l239.6,114.5c42.3-36.8,87.8-69.7,136-98.5l-35.3-262.5C788.7,80,893.6,45.6,1001.7,26l126.1,232.6c28.3-2.7,56.8-4.1,85.2-4.3
						c27.7,0.2,55.5,1.7,83.1,4.3l126.1-233.8c108.1,19.4,213,53.6,311.8,101.7l-34.8,263c48.1,28.8,93.5,61.8,135.7,98.5
						l238.9-114.8c76.4,78.9,141.7,167.9,193.8,264.6l-182.5,192c21.9,51.8,39.1,105.4,51.5,160.2l260.4,47.5
						c8.1,54.8,12.4,110,12.9,165.4c-0.5,54.5-4.6,108.9-12.5,162.8l-260.6,48.1c-12.4,54.6-29.7,108-51.5,159.6l183.2,191.9
						c-51.5,97-116.1,186.5-192,265.8l-239.6-114.5c-42.3,36.8-87.8,69.7-136,98.5l35.3,262.5c-98.8,48.2-203.7,82.6-311.8,102.2
						l-126.1-232.6c-28.3,2.7-56.8,4.1-85.2,4.3c-27.7-0.2-55.5-1.7-83.1-4.3L1003.9,2381z M1213,1821.9c341.9,0,619-277.1,619-619
						c0,0,0,0,0,0c0-341.9-277.1-619-619-619c0,0,0,0,0,0c-341.9,0-619,277.1-619,619c0,0,0,0,0,0
						C594,1544.8,871.1,1821.9,1213,1821.9C1213,1821.9,1213,1821.9,1213,1821.9z"/>
				</defs>
				<clipPath id="SVGID_2_">
					<use xlink:href="#SVGID_7_"  style="overflow:visible;"/>
				</clipPath>
				<g id="g4859" transform="matrix(1,0,0,-1,700,43.16015)" class="st23">
					
						<linearGradient id="path4169-3-3-7_1_" gradientUnits="userSpaceOnUse" x1="-190" y1="-3945.2861" x2="-190" y2="-2300.4302" gradientTransform="matrix(1 0 0 1 703 2022.4199)">
						<stop  offset="0" style="stop-color:#EAEAEA"/>
						<stop  offset="0.4433" style="stop-color:#EEEEEC"/>
						<stop  offset="1" style="stop-color:#A3A5A1"/>
						<stop  offset="1" style="stop-color:#E4E5E4"/>
					</linearGradient>
					
						<radialGradient id="path4169-3-3-7_2_" cx="-1411.4192" cy="-1680.0831" r="851.9832" gradientTransform="matrix(-5.3225 1.4262 -0.4226 -1.577 -7814.5083 -2580.845)" gradientUnits="userSpaceOnUse">
						<stop  offset="0" style="stop-color:#FFFFFF"/>
						<stop  offset="1" style="stop-color:#6B6E69"/>
					</radialGradient>
					<circle id="path4169-3-3-7" class="st24" cx="513" cy="-1159.8" r="848.8"/>
					
						<radialGradient id="path4169-3-3-7-6_1_" cx="35.0279" cy="-2609.6333" r="633.0656" gradientTransform="matrix(1 0 0 1 703 2022.4199)" gradientUnits="userSpaceOnUse">
						<stop  offset="0" style="stop-color:#FFFFFF"/>
						<stop  offset="1" style="stop-color:#FFFFFF;stop-opacity:0"/>
					</radialGradient>
					<circle id="path4169-3-3-7-6" class="st25" cx="513" cy="-1159.8" r="631.1"/>
				</g>
			</g>
		</g>
	</g>
</g>
</svg>
